# xmcd
#
# Track frame offsets:
#	150
#	11390
#	29046
#	38336
#	48972
#	55443
#	72099
#	90552
#	108095
#	122843
#	139483
#	155009
#	167653
#	182495
#	205027
#	220587
#
# Disc length: 3185 seconds
#
# Revision: 0
# Processed by: cddbd v1.5.2PL0 Copyright (c) Steve Scherf et al.
# Submitted via: EasyCDDAExtractor 16.0.6.1
#
DISCID=d30c6f10
DTITLE=Μακρόπουλος Νίκος - Δέκα έξι μεγ. επιτυχίες-Ν. Μακρόπουλος 2
DYEAR=2010
DGENRE=Λαϊκή νεώτερη
TTITLE0=Κατάσταση εκτάκτου ανάγκης [Αλ. Χρυσοβέργης-Σπ. Γιατράς]
TTITLE1=Δώδεκα και ένα [Ανδρέας Κομπόσης]
TTITLE2=Ύποπτο το αίσθημά σου [Αλ. Χρυσοβέργης-Σπ. Γιατράς]
TTITLE3=Πιό πολύ [Αλ. Χρυσοβέργης-Σπ. Γιατράς]
TTITLE4=Φοβερή [Φοίβος]
TTITLE5=Πού να σε βρω [Ανδ. Μέξας-Ν. Βαξαβανέλης]
TTITLE6=Πονάει ο χωρισμός [Σταμ. Γονίδης]
TTITLE7=Δεν πάει άλλο [Σταμ. Γονίδης]
TTITLE8=Παράτα με [Βασ. Δήμας]
TTITLE9=Δεν έχεις το Θεό σου [Ευρ. Νικολίδης-Ανδ. Λάμπρου]
TTITLE10=Έτσι είχες πει [Ν. Παπαδόπουλος-Β. Μεγαλοοικονόμου]
TTITLE11=Δε σε παίρνει [Γ. Πετρίδης-Α. Μακρυνιώτη]
TTITLE12=Πιό μόνος δε γίνεται [Δ. Κορδατζής-Α. Καραμεσίνη]
TTITLE13=Φταίς [Π. Αποστολίδης-Β. Μεγαλοοικονόμου]
TTITLE14=Άνω κάτω [Π. Αποστολίδης-Β. Μεγαλοοικονόμου]
TTITLE15=Μ' αρέσει η βροχή [Αλ. Χρυσοβέργης-Σπ. Γιατράς]
EXTD=
EXTT0=
EXTT1=
EXTT2=
EXTT3=
EXTT4=
EXTT5=
EXTT6=
EXTT7=
EXTT8=
EXTT9=
EXTT10=
EXTT11=
EXTT12=
EXTT13=
EXTT14=
EXTT15=
PLAYORDER=
